<svg xmlns="http://www.w3.org/2000/svg" viewBox="0 0 256 256">
  <rect x="0" y="0" width="256" height="256" rx="56" fill="#241812"/>
  <rect x="80" y="16" width="96" height="16" fill="#14100c"/>
  <rect x="48" y="32" width="16" height="16" fill="#f7ecd2"/>
  <rect x="64" y="32" width="32" height="16" fill="#14100c"/>
  <rect x="96" y="32" width="64" height="16" fill="#f7ecd2"/>
  <rect x="160" y="32" width="48" height="16" fill="#14100c"/>
  <rect x="32" y="48" width="16" height="16" fill="#f7ecd2"/>
  <rect x="48" y="48" width="16" height="16" fill="#14100c"/>
  <rect x="64" y="48" width="16" height="16" fill="#f7ecd2"/>
  <rect x="80" y="48" width="96" height="16" fill="#14100c"/>
  <rect x="176" y="48" width="16" height="16" fill="#f7ecd2"/>
  <rect x="192" y="48" width="32" height="16" fill="#14100c"/>
  <rect x="32" y="64" width="16" height="16" fill="#14100c"/>
  <rect x="48" y="64" width="16" height="16" fill="#f7ecd2"/>
  <rect x="64" y="64" width="128" height="16" fill="#14100c"/>
  <rect x="192" y="64" width="16" height="16" fill="#f7ecd2"/>
  <rect x="208" y="64" width="16" height="16" fill="#14100c"/>
  <rect x="16" y="80" width="96" height="16" fill="#14100c"/>
  <rect x="112" y="80" width="32" height="16" fill="#c26b4a"/>
  <rect x="144" y="80" width="96" height="16" fill="#14100c"/>
  <rect x="16" y="96" width="16" height="16" fill="#14100c"/>
  <rect x="32" y="96" width="16" height="16" fill="#f7ecd2"/>
  <rect x="48" y="96" width="48" height="16" fill="#14100c"/>
  <rect x="96" y="96" width="64" height="16" fill="#c26b4a"/>
  <rect x="160" y="96" width="48" height="16" fill="#14100c"/>
  <rect x="208" y="96" width="16" height="16" fill="#f7ecd2"/>
  <rect x="224" y="96" width="16" height="16" fill="#14100c"/>
  <rect x="16" y="112" width="16" height="16" fill="#14100c"/>
  <rect x="32" y="112" width="16" height="16" fill="#f7ecd2"/>
  <rect x="48" y="112" width="32" height="16" fill="#14100c"/>
  <rect x="80" y="112" width="32" height="16" fill="#c26b4a"/>
  <rect x="112" y="112" width="32" height="16" fill="#f7ecd2"/>
  <rect x="144" y="112" width="32" height="16" fill="#c26b4a"/>
  <rect x="176" y="112" width="32" height="16" fill="#14100c"/>
  <rect x="208" y="112" width="16" height="16" fill="#f7ecd2"/>
  <rect x="224" y="112" width="16" height="16" fill="#14100c"/>
  <rect x="16" y="128" width="16" height="16" fill="#14100c"/>
  <rect x="32" y="128" width="16" height="16" fill="#f7ecd2"/>
  <rect x="48" y="128" width="32" height="16" fill="#14100c"/>
  <rect x="80" y="128" width="32" height="16" fill="#c26b4a"/>
  <rect x="112" y="128" width="32" height="16" fill="#f7ecd2"/>
  <rect x="144" y="128" width="32" height="16" fill="#c26b4a"/>
  <rect x="176" y="128" width="32" height="16" fill="#14100c"/>
  <rect x="208" y="128" width="16" height="16" fill="#f7ecd2"/>
  <rect x="224" y="128" width="16" height="16" fill="#14100c"/>
  <rect x="16" y="144" width="16" height="16" fill="#14100c"/>
  <rect x="32" y="144" width="16" height="16" fill="#f7ecd2"/>
  <rect x="48" y="144" width="48" height="16" fill="#14100c"/>
  <rect x="96" y="144" width="64" height="16" fill="#c26b4a"/>
  <rect x="160" y="144" width="48" height="16" fill="#14100c"/>
  <rect x="208" y="144" width="16" height="16" fill="#f7ecd2"/>
  <rect x="224" y="144" width="16" height="16" fill="#14100c"/>
  <rect x="16" y="160" width="96" height="16" fill="#14100c"/>
  <rect x="112" y="160" width="32" height="16" fill="#c26b4a"/>
  <rect x="144" y="160" width="96" height="16" fill="#14100c"/>
  <rect x="32" y="176" width="16" height="16" fill="#14100c"/>
  <rect x="48" y="176" width="16" height="16" fill="#f7ecd2"/>
  <rect x="64" y="176" width="128" height="16" fill="#14100c"/>
  <rect x="192" y="176" width="16" height="16" fill="#f7ecd2"/>
  <rect x="208" y="176" width="16" height="16" fill="#14100c"/>
  <rect x="32" y="192" width="32" height="16" fill="#14100c"/>
  <rect x="64" y="192" width="16" height="16" fill="#f7ecd2"/>
  <rect x="80" y="192" width="96" height="16" fill="#14100c"/>
  <rect x="176" y="192" width="16" height="16" fill="#f7ecd2"/>
  <rect x="192" y="192" width="32" height="16" fill="#14100c"/>
  <rect x="48" y="208" width="48" height="16" fill="#14100c"/>
  <rect x="96" y="208" width="64" height="16" fill="#f7ecd2"/>
  <rect x="160" y="208" width="48" height="16" fill="#14100c"/>
  <rect x="80" y="224" width="96" height="16" fill="#14100c"/>
</svg>
